<svg xmlns="http://www.w3.org/2000/svg" xmlns:xlink="http://www.w3.org/1999/xlink" width="1000" zoomAndPan="magnify" viewBox="0 0 750 299.999988" height="400" preserveAspectRatio="xMidYMid meet" version="1.0"><defs><g><g id="id1"/></g></defs><g fill="rgb(99.609375%, 99.609375%, 99.609375%)" fill-opacity="1"><g transform="translate(40.499517, 180.843407)"><g><path d="M 1.152344 18.433594 C 2.878906 22.660156 5.761719 25.15625 9.984375 25.15625 C 26.691406 25.15625 53.960938 -9.984375 63.371094 -25.539062 C 67.210938 -23.8125 69.128906 -20.546875 69.515625 -16.515625 C 69.515625 -15.554688 69.324219 -13.824219 70.089844 -13.441406 C 71.625 -13.441406 71.820312 -16.128906 71.625 -16.898438 C 71.625 -21.699219 70.089844 -26.882812 65.867188 -29.765625 C 73.355469 -42.628906 86.988281 -75.851562 78.539062 -92.75 C 75.082031 -99.664062 69.128906 -102.734375 62.023438 -102.734375 C 39.941406 -102.734375 7.488281 -72.972656 7.875 -54.34375 C 7.875 -48.773438 10.753906 -45.894531 12.480469 -45.894531 C 12.867188 -45.894531 13.25 -46.277344 13.25 -46.855469 C 13.441406 -57.800781 46.664062 -94.671875 63.753906 -94.671875 C 67.210938 -94.671875 69.898438 -93.324219 71.625 -90.253906 C 79.308594 -76.8125 61.449219 -43.015625 54.726562 -31.683594 C 34.375 -30.148438 -6.914062 -0.574219 1.152344 18.433594 Z M 51.464844 -26.117188 C 48.007812 -18.820312 19.585938 16.707031 9.21875 16.707031 C 8.832031 16.707031 8.640625 16.707031 8.257812 16.515625 C -3.839844 12.867188 31.683594 -20.929688 51.464844 -26.117188 Z M 51.464844 -26.117188 "/></g></g></g><g fill="rgb(99.609375%, 99.609375%, 99.609375%)" fill-opacity="1"><g transform="translate(111.354955, 180.843407)"><g><path d="M 1.34375 -10.753906 C 1.921875 -4.609375 5.761719 0 12.097656 0 C 30.148438 0 53 -44.167969 33.988281 -53.382812 C 33.027344 -53.960938 31.683594 -54.152344 30.339844 -54.152344 C 25.15625 -54.152344 20.164062 -50.121094 17.089844 -46.085938 C 14.210938 -46.085938 12.867188 -44.742188 11.328125 -42.246094 C 6.144531 -34.375 0.191406 -20.355469 1.34375 -10.753906 Z M 14.019531 -21.890625 C 16.324219 -27.074219 20.164062 -35.332031 23.234375 -39.558594 C 24.003906 -40.324219 25.539062 -41.671875 24.964844 -42.628906 C 24.773438 -43.398438 23.621094 -44.167969 22.660156 -44.550781 C 24.773438 -48.007812 27.652344 -49.734375 29.957031 -49.734375 C 31.109375 -49.734375 31.875 -49.160156 32.835938 -48.773438 C 44.550781 -40.519531 20.164062 -5.375 12.289062 -5.375 C 10.945312 -5.375 10.175781 -6.144531 9.984375 -8.066406 C 9.601562 -12.097656 13.058594 -20.164062 14.019531 -21.890625 Z M 14.019531 -21.890625 "/></g></g></g><g fill="rgb(99.609375%, 99.609375%, 99.609375%)" fill-opacity="1"><g transform="translate(151.487178, 180.843407)"><g><path d="M -5.570312 -8.449219 C -3.839844 -2.6875 1.152344 -0.574219 6.527344 -0.574219 C 13.058594 -0.574219 20.164062 -4.03125 21.507812 -8.640625 C 23.234375 -14.210938 20.546875 -20.738281 17.667969 -25.925781 C 10.945312 -39.75 23.425781 -49.925781 34.566406 -55.6875 C 36.101562 -56.648438 32.261719 -61.066406 26.882812 -61.066406 C 24.386719 -61.066406 21.507812 -60.296875 18.820312 -57.800781 C -1.34375 -41.476562 16.515625 -23.234375 15.554688 -15.9375 C 14.976562 -10.371094 9.023438 -8.832031 3.648438 -8.832031 C -0.574219 -8.832031 -4.417969 -9.792969 -4.800781 -10.753906 C -4.992188 -10.945312 -5.375 -11.136719 -5.570312 -11.136719 C -5.953125 -11.136719 -6.144531 -10.371094 -5.570312 -8.449219 Z M -5.570312 -8.449219 "/></g></g></g><g fill="rgb(99.609375%, 99.609375%, 99.609375%)" fill-opacity="1"><g transform="translate(178.369998, 180.843407)"><g><path d="M 6.527344 -1.535156 C 12.097656 -1.535156 25.347656 -20.738281 28.035156 -25.15625 L 27.84375 -24.003906 C 27.074219 -19.011719 26.691406 -12.675781 30.148438 -9.023438 C 31.492188 -7.875 33.027344 -7.105469 34.375 -7.105469 C 44.550781 -7.105469 59.914062 -32.261719 63.753906 -37.636719 C 63.371094 -39.171875 62.601562 -39.941406 61.640625 -39.941406 C 61.449219 -39.941406 61.257812 -39.75 61.257812 -39.75 C 60.296875 -38.40625 43.78125 -14.785156 38.789062 -14.785156 C 38.40625 -14.785156 38.023438 -14.976562 37.828125 -15.363281 C 37.445312 -16.324219 37.636719 -18.242188 38.214844 -21.316406 C 39.941406 -28.035156 45.703125 -39.558594 46.855469 -41.476562 C 48.582031 -44.359375 43.78125 -46.085938 40.519531 -46.085938 C 36.292969 -46.085938 32.453125 -38.789062 31.109375 -35.523438 C 24.003906 -25.730469 12.480469 -9.792969 9.792969 -9.984375 C 5.953125 -13.058594 24.578125 -46.472656 29.1875 -50.695312 C 28.613281 -53.960938 25.730469 -57.03125 22.660156 -57.03125 C 21.316406 -57.03125 19.777344 -56.457031 18.625 -54.726562 C 9.792969 -43.78125 -8.832031 -7.875 3.648438 -2.304688 C 4.609375 -1.921875 5.570312 -1.535156 6.527344 -1.535156 Z M 6.527344 -1.535156 "/></g></g></g><g fill="rgb(99.609375%, 99.609375%, 99.609375%)" fill-opacity="1"><g transform="translate(227.143124, 180.843407)"><g><path d="M 14.402344 -54.726562 C 20.546875 -54.726562 33.414062 -61.832031 33.414062 -63.945312 C 33.414062 -65.867188 30.917969 -71.050781 29.1875 -71.050781 C 28.996094 -71.050781 28.804688 -70.859375 28.613281 -70.472656 C 25.15625 -67.210938 14.976562 -58.570312 12.289062 -58.570312 C 10.175781 -58.570312 12.097656 -54.726562 14.402344 -54.726562 Z M 34.566406 -38.789062 C 35.71875 -44.933594 31.300781 -50.3125 25.347656 -50.3125 C 23.234375 -50.3125 20.929688 -49.734375 18.625 -48.199219 C 6.722656 -40.324219 -7.679688 -17.28125 3.648438 -3.648438 C 5.761719 -0.769531 8.832031 0.382812 12.480469 0.382812 C 26.117188 0.382812 39.367188 -18.050781 46.472656 -27.84375 C 48.96875 -31.492188 50.886719 -34.375 52.039062 -35.910156 C 52.039062 -37.445312 50.886719 -38.023438 50.121094 -38.023438 C 49.925781 -38.023438 49.734375 -38.023438 49.734375 -37.828125 C 42.054688 -27.269531 26.117188 -5.953125 12.097656 -5.953125 C 6.527344 -6.527344 7.679688 -13.441406 10.945312 -21.316406 C 12.097656 -19.777344 14.210938 -19.011719 16.515625 -19.011719 C 23.042969 -19.203125 30.917969 -28.996094 33.414062 -34.949219 L 33.414062 -35.332031 C 33.988281 -36.292969 34.179688 -37.445312 34.566406 -38.789062 Z M 29.574219 -38.214844 C 26.882812 -31.300781 18.242188 -23.425781 14.402344 -23.425781 C 13.441406 -23.425781 12.867188 -23.8125 12.480469 -24.773438 C 17.28125 -33.796875 24.578125 -42.628906 28.226562 -42.628906 C 28.996094 -42.628906 29.574219 -42.4375 29.957031 -41.863281 C 30.339844 -40.902344 30.148438 -39.75 29.574219 -38.214844 Z M 29.574219 -38.214844 "/></g></g></g><g fill="rgb(99.609375%, 99.609375%, 99.609375%)" fill-opacity="1"><g transform="translate(264.971108, 180.843407)"><g/></g></g><g fill="rgb(99.609375%, 99.609375%, 99.609375%)" fill-opacity="1"><g transform="translate(288.013532, 180.843407)"><g><path d="M 61.257812 -83.722656 C 58.183594 -83.722656 54.34375 -81.804688 52.230469 -78.347656 C 36.292969 -52.230469 24.773438 -28.035156 14.210938 -0.382812 C 13.441406 1.726562 13.058594 3.839844 13.824219 5.570312 C 6.914062 8.449219 1.152344 10.371094 -3.648438 10.5625 C -1.921875 13.441406 1.535156 14.785156 5.761719 14.785156 C 34.375 14.785156 109.265625 -43.972656 99.855469 -78.539062 C 94.863281 -97.550781 74.316406 -103.3125 56.839844 -103.3125 C 27.652344 -103.3125 -13.058594 -90.253906 -10.945312 -62.601562 C -10.175781 -53.191406 -3.648438 -46.472656 0.382812 -46.472656 C 1.152344 -46.472656 1.921875 -46.664062 2.304688 -47.238281 C 4.992188 -50.121094 -2.496094 -46.855469 -4.992188 -60.296875 C -5.953125 -76.425781 25.539062 -93.710938 53 -93.710938 L 54.34375 -93.710938 C 131.347656 -92.367188 66.058594 -22.851562 20.929688 1.921875 C 32.261719 -26.5 48.199219 -53.960938 66.25 -81.035156 C 65.097656 -82.957031 63.175781 -83.722656 61.257812 -83.722656 Z M 61.257812 -83.722656 "/></g></g></g><g fill="rgb(99.609375%, 99.609375%, 99.609375%)" fill-opacity="1"><g transform="translate(375.382722, 180.843407)"><g><path d="M 26.882812 -10.175781 C 26.882812 -12.675781 24.578125 -15.363281 20.738281 -15.363281 C 16.898438 -15.363281 12.480469 -8.449219 12.480469 -5.761719 C 12.480469 -1.921875 14.785156 0 18.820312 0 C 22.851562 0 26.882812 -5.761719 26.882812 -10.175781 Z M 26.882812 -10.175781 "/></g></g></g><g fill="rgb(99.609375%, 99.609375%, 99.609375%)" fill-opacity="1"><g transform="translate(412.826668, 180.843407)"><g><path d="M 56.457031 -82.570312 C 57.800781 -85.261719 59.144531 -87.566406 60.871094 -90.0625 C 62.023438 -91.597656 61.832031 -91.789062 59.914062 -91.980469 C 53.769531 -91.980469 52.039062 -89.675781 48.773438 -84.875 L 47.046875 -81.421875 C 41.671875 -71.433594 33.414062 -55.496094 26.117188 -39.75 L 24.578125 -41.863281 C 24.195312 -42.054688 24.003906 -42.054688 23.621094 -42.054688 C 21.890625 -42.054688 19.011719 -39.171875 18.433594 -37.636719 C 18.242188 -37.0625 19.585938 -34.566406 22.082031 -30.917969 C 14.785156 -14.59375 9.410156 0 9.792969 5.570312 C 10.371094 12.480469 16.707031 15.746094 19.777344 15.746094 C 20.929688 15.746094 21.890625 15.171875 21.699219 14.402344 C 21.507812 12.480469 19.011719 14.976562 18.820312 11.136719 C 18.433594 6.527344 23.621094 -8.066406 29.1875 -22.273438 C 38.40625 -12.289062 52.421875 -1.152344 66.441406 -1.152344 C 75.851562 -1.152344 85.261719 -6.144531 93.519531 -19.585938 C 94.09375 -20.546875 93.710938 -21.890625 92.75 -22.273438 C 92.558594 -22.46875 92.171875 -22.660156 91.789062 -22.660156 C 91.214844 -22.660156 90.445312 -22.273438 90.0625 -21.699219 C 84.300781 -12.097656 77.386719 -8.257812 70.28125 -8.257812 C 58.183594 -8.257812 45.320312 -18.820312 35.332031 -29.378906 C 77.195312 -37.828125 126.355469 -89.675781 90.445312 -112.914062 C 83.917969 -117.136719 75.851562 -118.867188 67.210938 -118.867188 C 28.421875 -118.867188 -21.316406 -81.226562 10.753906 -47.625 C 11.328125 -47.046875 11.90625 -46.855469 12.480469 -46.855469 C 12.675781 -46.855469 13.058594 -46.855469 13.441406 -47.238281 C 14.210938 -48.007812 13.632812 -48.96875 12.675781 -49.734375 C -14.402344 -77.578125 38.40625 -108.878906 70.089844 -108.878906 C 80.269531 -108.878906 88.332031 -105.617188 90.828125 -97.933594 C 97.742188 -77.195312 66.441406 -45.703125 35.523438 -37.828125 C 41.863281 -53 48.582031 -68.171875 56.457031 -82.570312 Z M 56.457031 -82.570312 "/></g></g></g><g fill="rgb(99.609375%, 99.609375%, 99.609375%)" fill-opacity="1"><g transform="translate(501.155969, 180.843407)"><g><path d="M 38.597656 -88.910156 C 37.828125 -88.910156 37.445312 -88.523438 36.484375 -87.371094 C 31.492188 -80.460938 24.964844 -66.632812 25.925781 -57.800781 C 26.117188 -56.648438 26.5 -56.074219 26.691406 -56.074219 C 26.882812 -56.074219 27.074219 -56.457031 27.652344 -57.222656 C 33.222656 -65.289062 38.40625 -73.546875 44.167969 -81.421875 C 44.550781 -82.1875 45.703125 -83.148438 45.125 -84.300781 C 44.359375 -86.605469 41.476562 -88.910156 38.597656 -88.910156 Z M 38.597656 -39.171875 C 38.597656 -39.171875 38.40625 -39.171875 38.214844 -38.789062 C 30.339844 -28.035156 22.273438 -17.089844 11.714844 -8.832031 C 10.371094 -8.066406 9.792969 -7.679688 9.023438 -7.679688 C 8.832031 -7.679688 8.832031 -7.679688 8.640625 -7.875 C 6.144531 -9.21875 11.714844 -20.164062 12.480469 -21.890625 C 16.324219 -29.574219 20.929688 -37.828125 25.539062 -44.742188 L 25.730469 -45.125 C 27.84375 -48.96875 23.8125 -51.078125 20.929688 -52.421875 C 19.777344 -52.808594 19.011719 -53.191406 18.433594 -53.191406 C 15.171875 -53.191406 1.726562 -21.125 -0.191406 -16.515625 C -2.6875 -9.792969 2.113281 -3.265625 7.488281 -3.265625 C 15.171875 -3.265625 30.722656 -22.851562 35.140625 -28.996094 C 36.675781 -31.683594 38.597656 -34.375 40.519531 -37.0625 C 40.132812 -38.40625 39.558594 -39.171875 38.597656 -39.171875 Z M 38.597656 -39.171875 "/></g></g></g><g fill="rgb(99.609375%, 99.609375%, 99.609375%)" fill-opacity="1"><g transform="translate(526.310598, 180.843407)"><g><path d="M 1.152344 -11.714844 C 1.152344 -6.722656 1.726562 0 8.257812 0 C 9.023438 0 9.792969 -0.382812 10.371094 -1.535156 C 17.28125 -12.867188 46.472656 -56.074219 57.222656 -59.335938 C 59.722656 -59.527344 58.375 -62.792969 54.726562 -62.792969 C 53.191406 -62.792969 51.464844 -62.410156 49.925781 -60.871094 C 35.910156 -50.695312 13.441406 -14.402344 9.21875 -9.21875 C 12.289062 -29.574219 21.507812 -45.703125 27.460938 -51.847656 C 27.652344 -51.847656 25.539062 -54.152344 22.660156 -54.726562 L 21.316406 -54.726562 C 11.714844 -54.726562 1.34375 -19.585938 1.152344 -11.714844 Z M 1.152344 -11.714844 "/></g></g></g><g fill="rgb(99.609375%, 99.609375%, 99.609375%)" fill-opacity="1"><g transform="translate(562.026353, 180.843407)"><g><path d="M 12.480469 0.382812 C 26.117188 0.382812 39.367188 -18.050781 46.472656 -27.84375 C 48.96875 -31.492188 50.886719 -34.375 52.039062 -35.910156 C 52.039062 -37.445312 50.886719 -38.023438 50.121094 -38.023438 C 49.925781 -38.023438 49.734375 -38.023438 49.734375 -37.828125 C 42.054688 -27.269531 26.117188 -5.953125 12.097656 -5.953125 C 6.527344 -6.527344 7.679688 -13.441406 10.945312 -21.316406 C 12.097656 -19.777344 14.210938 -19.011719 16.515625 -19.011719 C 23.042969 -19.203125 30.917969 -28.996094 33.414062 -34.949219 L 33.414062 -35.332031 C 33.988281 -36.292969 34.179688 -37.445312 34.566406 -38.789062 C 35.71875 -44.933594 31.300781 -50.3125 25.347656 -50.3125 C 23.234375 -50.3125 20.929688 -49.734375 18.625 -48.199219 C 6.722656 -40.324219 -7.679688 -17.28125 3.648438 -3.648438 C 5.761719 -0.769531 8.832031 0.382812 12.480469 0.382812 Z M 28.226562 -42.628906 C 28.996094 -42.628906 29.574219 -42.4375 29.957031 -41.863281 C 30.339844 -40.902344 30.148438 -39.75 29.765625 -38.214844 C 26.882812 -31.300781 18.242188 -23.425781 14.402344 -23.425781 C 13.441406 -23.425781 12.867188 -23.8125 12.480469 -24.773438 C 17.28125 -33.796875 24.578125 -42.628906 28.226562 -42.628906 Z M 28.226562 -42.628906 "/></g></g></g><g fill="rgb(99.609375%, 99.609375%, 99.609375%)" fill-opacity="1"><g transform="translate(599.854364, 180.843407)"><g><path d="M 33.796875 -60.488281 C 33.222656 -61.257812 32.261719 -62.023438 31.492188 -62.792969 C 34.179688 -67.210938 36.292969 -71.433594 37.636719 -75.082031 C 38.789062 -78.347656 37.445312 -86.988281 33.027344 -86.605469 C 24.964844 -86.027344 15.9375 -71.625 25.539062 -62.023438 C 19.585938 -52.039062 12.867188 -39.171875 8.640625 -33.414062 C 8.449219 -33.027344 8.640625 -31.109375 9.984375 -31.109375 C 10.371094 -31.109375 10.945312 -31.300781 12.097656 -32.070312 C 16.515625 -37.636719 20.546875 -46.472656 28.804688 -58.570312 C 29.378906 -57.800781 29.957031 -57.03125 30.148438 -56.457031 C 34.566406 -48.007812 10.175781 -18.242188 10.5625 -3.648438 C 10.5625 0.769531 12.675781 7.875 18.242188 7.875 C 18.820312 7.875 19.203125 7.679688 19.777344 7.488281 C 29.957031 2.496094 51.464844 -32.453125 54.152344 -36.101562 C 54.535156 -36.675781 54.152344 -37.636719 53.382812 -38.023438 C 53 -38.214844 52.808594 -38.40625 52.421875 -38.40625 C 52.039062 -38.40625 51.847656 -38.214844 51.273438 -37.828125 C 46.855469 -31.875 24.773438 2.113281 19.203125 1.152344 C 22.273438 -9.984375 33.988281 -29.957031 36.675781 -37.445312 C 39.558594 -44.550781 41.863281 -55.304688 33.796875 -60.488281 Z M 32.453125 -78.539062 C 33.414062 -78.539062 33.605469 -77.386719 32.453125 -74.316406 C 31.683594 -71.820312 30.339844 -69.128906 28.996094 -67.019531 C 25.539062 -71.625 30.722656 -78.539062 32.453125 -78.539062 Z M 32.453125 -78.539062 "/></g></g></g><g fill="rgb(99.609375%, 99.609375%, 99.609375%)" fill-opacity="1"><g transform="translate(639.410515, 180.843407)"><g><path d="M 36.675781 -14.976562 C 36.292969 -16.128906 36.484375 -18.050781 37.445312 -21.125 C 38.214844 -25.730469 40.710938 -34.179688 44.550781 -37.253906 C 46.085938 -38.214844 45.894531 -38.40625 44.742188 -39.75 C 42.824219 -42.054688 40.710938 -43.015625 38.789062 -43.015625 C 38.023438 -43.015625 37.253906 -42.824219 36.292969 -42.4375 C 37.828125 -48.007812 38.789062 -54.152344 34.566406 -58.761719 C 33.414062 -59.914062 31.683594 -61.066406 29.765625 -61.066406 C 27.652344 -61.066406 25.347656 -59.914062 22.660156 -57.609375 C 11.136719 -48.199219 -10.371094 -9.601562 4.800781 -2.6875 C 5.953125 -2.113281 6.722656 -1.726562 7.875 -1.726562 C 8.257812 -1.726562 8.640625 -1.921875 9.023438 -1.921875 C 14.210938 -4.226562 21.125 -15.554688 26.882812 -24.964844 C 26.882812 -24.578125 26.882812 -24.386719 26.691406 -23.8125 C 25.925781 -18.625 25.347656 -12.289062 29.1875 -8.640625 C 30.339844 -7.488281 31.683594 -6.722656 33.414062 -6.722656 C 43.78125 -6.722656 59.335938 -32.070312 63.175781 -37.636719 C 62.601562 -39.75 62.023438 -39.75 60.488281 -39.75 C 59.527344 -38.40625 42.824219 -14.402344 37.828125 -14.402344 C 37.445312 -14.402344 37.0625 -14.59375 36.675781 -14.976562 Z M 28.804688 -47.625 C 30.339844 -48.96875 31.492188 -49.925781 32.453125 -49.925781 C 33.988281 -49.925781 34.375 -46.855469 33.605469 -40.519531 C 31.875 -39.171875 30.917969 -37.253906 29.957031 -35.332031 C 22.851562 -25.539062 13.824219 -10.371094 10.945312 -10.371094 C 8.257812 -12.675781 21.316406 -39.558594 28.804688 -47.625 Z M 28.804688 -47.625 "/></g></g></g><g fill="rgb(99.609375%, 99.609375%, 99.609375%)" fill-opacity="1"><g transform="translate(686.437279, 180.843407)"><g/></g></g><g fill="rgb(99.609375%, 99.609375%, 99.609375%)" fill-opacity="1"><g transform="translate(132.299864, 239.882148)"><g><path d="M 2.046875 -10.53125 C 2.046875 -11.238281 2.21875 -11.734375 2.5625 -12.015625 C 2.90625 -12.304688 3.3125 -12.453125 3.78125 -12.453125 C 4.257812 -12.453125 4.675781 -12.304688 5.03125 -12.015625 C 5.394531 -11.734375 5.578125 -11.238281 5.578125 -10.53125 C 5.578125 -9.851562 5.394531 -9.359375 5.03125 -9.046875 C 4.675781 -8.742188 4.257812 -8.59375 3.78125 -8.59375 C 3.3125 -8.59375 2.90625 -8.742188 2.5625 -9.046875 C 2.21875 -9.359375 2.046875 -9.851562 2.046875 -10.53125 Z M 2.046875 -10.53125 "/></g></g></g><g fill="rgb(99.609375%, 99.609375%, 99.609375%)" fill-opacity="1"><g transform="translate(157.018331, 239.882148)"><g><path d="M 17.511719 1.566406 L 22.011719 -19.363281 L 19.992188 -19.363281 L 16.972656 -5.296875 L 11.164062 -20.503906 L 5.324219 -5.296875 L 2.335938 -19.363281 L 0.285156 -19.363281 L 4.8125 1.566406 L 11.164062 -15.292969 Z M 17.511719 1.566406 "/></g></g></g><g fill="rgb(99.609375%, 99.609375%, 99.609375%)" fill-opacity="1"><g transform="translate(196.402182, 239.882148)"><g><path d="M 13.640625 0 L 13.640625 -1.851562 L 4.128906 -1.851562 L 4.128906 -8.742188 L 13.355469 -8.742188 L 13.355469 -10.621094 L 4.128906 -10.621094 L 4.128906 -17.511719 L 13.640625 -17.511719 L 13.640625 -19.363281 L 2.136719 -19.363281 L 2.136719 0 Z M 13.640625 0 "/></g></g></g><g fill="rgb(99.609375%, 99.609375%, 99.609375%)" fill-opacity="1"><g transform="translate(229.264913, 239.882148)"><g><path d="M 14.78125 -5.382812 C 14.78125 -6.75 14.4375 -7.917969 13.78125 -8.828125 C 13.101562 -9.738281 12.1875 -10.367188 11.078125 -10.679688 C 11.734375 -10.964844 12.300781 -11.476562 12.730469 -12.246094 C 12.929688 -12.585938 13.070312 -12.929688 13.183594 -13.300781 C 13.300781 -13.667969 13.355469 -14.183594 13.355469 -14.835938 C 13.355469 -15.464844 13.183594 -16.117188 12.898438 -16.746094 C 12.046875 -18.480469 10.195312 -19.363281 7.375 -19.363281 L 2.136719 -19.363281 L 2.136719 0 L 8.058594 0 C 10.023438 0 11.589844 -0.425781 12.785156 -1.339844 C 13.382812 -1.792969 13.867188 -2.390625 14.238281 -3.132812 C 14.582031 -3.84375 14.78125 -4.585938 14.78125 -5.382812 Z M 11.363281 -14.523438 C 11.363281 -13.46875 11.050781 -12.699219 10.421875 -12.1875 C 9.796875 -11.675781 8.96875 -11.417969 7.945312 -11.417969 L 4.128906 -11.417969 L 4.128906 -17.457031 L 7.375 -17.457031 C 10.023438 -17.457031 11.363281 -16.460938 11.363281 -14.523438 Z M 12.785156 -5.78125 C 12.785156 -4.613281 12.386719 -3.671875 11.589844 -2.960938 C 10.820312 -2.25 9.824219 -1.90625 8.628906 -1.90625 L 4.128906 -1.90625 L 4.128906 -9.425781 L 8.941406 -9.425781 C 9.9375 -9.425781 10.820312 -9.085938 11.589844 -8.402344 C 11.933594 -8.085938 12.21875 -7.71875 12.445312 -7.289062 C 12.671875 -6.835938 12.785156 -6.351562 12.785156 -5.78125 Z M 12.785156 -5.78125 "/></g></g></g><g fill="rgb(99.609375%, 99.609375%, 99.609375%)" fill-opacity="1"><g transform="translate(261.700499, 239.882148)"><g/></g></g><g fill="rgb(99.609375%, 99.609375%, 99.609375%)" fill-opacity="1"><g transform="translate(286.475915, 239.882148)"><g><path d="M 17.171875 -9.683594 C 17.171875 -11.078125 16.886719 -12.359375 16.375 -13.554688 C 15.863281 -14.75 15.148438 -15.777344 14.265625 -16.632812 C 13.355469 -17.484375 12.300781 -18.140625 11.105469 -18.625 C 9.882812 -19.109375 8.570312 -19.363281 7.203125 -19.363281 L 2.136719 -19.363281 L 2.136719 0 L 7.203125 0 C 8.570312 0 9.882812 -0.226562 11.105469 -0.710938 C 12.300781 -1.195312 13.355469 -1.878906 14.265625 -2.734375 C 15.148438 -3.589844 15.863281 -4.585938 16.375 -5.78125 C 16.886719 -6.976562 17.171875 -8.257812 17.171875 -9.683594 Z M 15.234375 -9.683594 C 15.234375 -7.460938 14.4375 -5.609375 12.898438 -4.15625 C 11.363281 -2.707031 9.484375 -1.992188 7.261719 -1.992188 L 4.128906 -1.992188 L 4.128906 -17.371094 L 7.261719 -17.371094 C 9.484375 -17.371094 11.363281 -16.632812 12.898438 -15.207031 C 14.4375 -13.726562 15.234375 -11.875 15.234375 -9.683594 Z M 15.234375 -9.683594 "/></g></g></g><g fill="rgb(99.609375%, 99.609375%, 99.609375%)" fill-opacity="1"><g transform="translate(322.015447, 239.882148)"><g><path d="M 13.640625 0 L 13.640625 -1.851562 L 4.128906 -1.851562 L 4.128906 -8.742188 L 13.355469 -8.742188 L 13.355469 -10.621094 L 4.128906 -10.621094 L 4.128906 -17.511719 L 13.640625 -17.511719 L 13.640625 -19.363281 L 2.136719 -19.363281 L 2.136719 0 Z M 13.640625 0 "/></g></g></g><g fill="rgb(99.609375%, 99.609375%, 99.609375%)" fill-opacity="1"><g transform="translate(354.878184, 239.882148)"><g><path d="M 9.085938 1.167969 L 17.855469 -19.363281 L 15.691406 -19.363281 L 9.085938 -3.757812 L 2.449219 -19.363281 L 0.285156 -19.363281 Z M 9.085938 1.167969 "/></g></g></g><g fill="rgb(99.609375%, 99.609375%, 99.609375%)" fill-opacity="1"><g transform="translate(390.104469, 239.882148)"><g><path d="M 13.640625 0 L 13.640625 -1.851562 L 4.128906 -1.851562 L 4.128906 -8.742188 L 13.355469 -8.742188 L 13.355469 -10.621094 L 4.128906 -10.621094 L 4.128906 -17.511719 L 13.640625 -17.511719 L 13.640625 -19.363281 L 2.136719 -19.363281 L 2.136719 0 Z M 13.640625 0 "/></g></g></g><g fill="rgb(99.609375%, 99.609375%, 99.609375%)" fill-opacity="1"><g transform="translate(422.967206, 239.882148)"><g><path d="M 4.128906 -1.992188 L 4.128906 -19.363281 L 2.136719 -19.363281 L 2.136719 0 L 11.050781 0 L 11.050781 -1.992188 Z M 4.128906 -1.992188 "/></g></g></g><g fill="rgb(99.609375%, 99.609375%, 99.609375%)" fill-opacity="1"><g transform="translate(451.672374, 239.882148)"><g><path d="M 19.195312 -9.738281 C 19.195312 -7.519531 18.394531 -5.636719 16.859375 -4.101562 C 15.292969 -2.535156 13.414062 -1.765625 11.21875 -1.765625 C 9.027344 -1.765625 7.148438 -2.535156 5.609375 -4.101562 C 4.042969 -5.636719 3.273438 -7.519531 3.273438 -9.738281 C 3.273438 -11.902344 4.042969 -13.78125 5.609375 -15.347656 C 7.148438 -16.886719 9.027344 -17.683594 11.21875 -17.683594 C 13.414062 -17.683594 15.292969 -16.886719 16.859375 -15.347656 C 18.394531 -13.78125 19.195312 -11.902344 19.195312 -9.738281 Z M 21.1875 -9.738281 C 21.1875 -11.105469 20.902344 -12.386719 20.390625 -13.613281 C 19.878906 -14.808594 19.164062 -15.863281 18.253906 -16.773438 C 17.34375 -17.65625 16.289062 -18.367188 15.09375 -18.878906 C 13.867188 -19.394531 12.585938 -19.679688 11.21875 -19.679688 C 9.851562 -19.679688 8.542969 -19.394531 7.347656 -18.878906 C 6.152344 -18.367188 5.097656 -17.65625 4.1875 -16.773438 C 3.273438 -15.863281 2.5625 -14.808594 2.050781 -13.613281 C 1.539062 -12.386719 1.28125 -11.105469 1.28125 -9.738281 C 1.28125 -8.371094 1.539062 -7.0625 2.050781 -5.867188 C 2.5625 -4.640625 3.273438 -3.589844 4.1875 -2.675781 C 5.097656 -1.765625 6.152344 -1.054688 7.347656 -0.542969 C 8.542969 -0.0273438 9.851562 0.226562 11.21875 0.226562 C 12.585938 0.226562 13.867188 -0.0273438 15.09375 -0.542969 C 16.289062 -1.054688 17.34375 -1.765625 18.253906 -2.675781 C 19.164062 -3.589844 19.878906 -4.640625 20.390625 -5.867188 C 20.902344 -7.0625 21.1875 -8.371094 21.1875 -9.738281 Z M 21.1875 -9.738281 "/></g></g></g><g fill="rgb(99.609375%, 99.609375%, 99.609375%)" fill-opacity="1"><g transform="translate(491.227088, 239.882148)"><g><path d="M 4.128906 -9.597656 L 4.128906 -17.457031 L 8.628906 -17.457031 C 9.796875 -17.457031 10.734375 -17.085938 11.449219 -16.375 C 12.132812 -15.632812 12.5 -14.722656 12.5 -13.582031 C 12.5 -12.417969 12.132812 -11.476562 11.390625 -10.707031 C 10.652344 -9.96875 9.738281 -9.597656 8.628906 -9.597656 Z M 14.496094 -13.527344 C 14.496094 -15.234375 13.867188 -16.632812 12.671875 -17.742188 C 11.476562 -18.824219 10.050781 -19.363281 8.34375 -19.363281 L 2.136719 -19.363281 L 2.136719 0 L 4.128906 0 L 4.128906 -7.660156 L 8.34375 -7.660156 C 10.050781 -7.660156 11.503906 -8.203125 12.671875 -9.285156 C 13.867188 -10.421875 14.496094 -11.816406 14.496094 -13.527344 Z M 14.496094 -13.527344 "/></g></g></g><g fill="rgb(99.609375%, 99.609375%, 99.609375%)" fill-opacity="1"><g transform="translate(523.377911, 239.882148)"><g><path d="M 13.640625 0 L 13.640625 -1.851562 L 4.128906 -1.851562 L 4.128906 -8.742188 L 13.355469 -8.742188 L 13.355469 -10.621094 L 4.128906 -10.621094 L 4.128906 -17.511719 L 13.640625 -17.511719 L 13.640625 -19.363281 L 2.136719 -19.363281 L 2.136719 0 Z M 13.640625 0 "/></g></g></g><g fill="rgb(99.609375%, 99.609375%, 99.609375%)" fill-opacity="1"><g transform="translate(556.240625, 239.882148)"><g><path d="M 4.128906 -9.570312 L 4.128906 -17.457031 L 8.628906 -17.457031 C 9.796875 -17.457031 10.734375 -17.085938 11.449219 -16.347656 C 12.132812 -15.605469 12.5 -14.695312 12.5 -13.554688 C 12.5 -12.417969 12.132812 -11.476562 11.390625 -10.707031 C 10.652344 -9.9375 9.738281 -9.570312 8.628906 -9.570312 Z M 14.496094 -13.527344 C 14.496094 -15.179688 13.867188 -16.601562 12.671875 -17.714844 C 11.503906 -18.796875 10.050781 -19.363281 8.34375 -19.363281 L 2.136719 -19.363281 L 2.136719 0 L 4.128906 0 L 4.128906 -7.660156 L 6.4375 -7.660156 L 12.132812 0 L 14.808594 0 L 8.828125 -7.660156 C 10.335938 -7.746094 11.617188 -8.285156 12.671875 -9.285156 C 13.867188 -10.394531 14.496094 -11.816406 14.496094 -13.527344 Z M 14.496094 -13.527344 "/></g></g></g><g fill="rgb(99.609375%, 99.609375%, 99.609375%)" fill-opacity="1"><g transform="translate(588.81861, 239.882148)"><g><path d="M 2.046875 -10.53125 C 2.046875 -11.238281 2.21875 -11.734375 2.5625 -12.015625 C 2.90625 -12.304688 3.3125 -12.453125 3.78125 -12.453125 C 4.257812 -12.453125 4.675781 -12.304688 5.03125 -12.015625 C 5.394531 -11.734375 5.578125 -11.238281 5.578125 -10.53125 C 5.578125 -9.851562 5.394531 -9.359375 5.03125 -9.046875 C 4.675781 -8.742188 4.257812 -8.59375 3.78125 -8.59375 C 3.3125 -8.59375 2.90625 -8.742188 2.5625 -9.046875 C 2.21875 -9.359375 2.046875 -9.851562 2.046875 -10.53125 Z M 2.046875 -10.53125 "/></g></g></g><g fill="rgb(99.609375%, 99.609375%, 99.609375%)" fill-opacity="1"><g transform="translate(51.909246, 275.882145)"><g><path d="M 6.699219 -8.152344 C 8.941406 -7.617188 10.472656 -7.03125 11.285156 -6.371094 C 11.847656 -5.910156 12.128906 -5.324219 12.128906 -4.613281 C 12.128906 -3.898438 11.972656 -3.3125 11.667969 -2.90625 C 10.90625 -1.835938 9.527344 -1.300781 7.59375 -1.300781 C 4.890625 -1.300781 3.363281 -2.214844 3.03125 -4.050781 L 0.941406 -4.050781 C 1.554688 -1.121094 3.769531 0.332031 7.59375 0.332031 C 9.300781 0.332031 10.726562 -0.0273438 11.871094 -0.789062 C 13.25 -1.679688 13.960938 -3.007812 13.960938 -4.738281 C 13.960938 -6.164062 13.402344 -7.261719 12.28125 -8.027344 C 11.492188 -8.585938 10.214844 -9.09375 8.457031 -9.554688 C 6.675781 -10.011719 5.527344 -10.394531 4.992188 -10.675781 C 3.820312 -11.261719 3.234375 -12.078125 3.261719 -13.144531 C 3.261719 -13.707031 3.363281 -14.191406 3.617188 -14.546875 C 4.28125 -15.542969 5.453125 -16.050781 7.132812 -16.050781 C 9.503906 -16.050781 10.851562 -15.285156 11.210938 -13.808594 L 13.144531 -13.808594 C 12.507812 -16.304688 10.496094 -17.578125 7.132812 -17.578125 C 5.605469 -17.578125 4.253906 -17.171875 3.132812 -16.355469 C 1.988281 -15.542969 1.402344 -14.34375 1.402344 -12.714844 C 1.402344 -10.496094 3.183594 -8.96875 6.699219 -8.152344 Z M 6.699219 -8.152344 "/></g></g></g><g fill="rgb(99.609375%, 99.609375%, 99.609375%)" fill-opacity="1"><g transform="translate(81.819539, 275.882145)"><g><path d="M 4.714844 -6.371094 L 7.871094 -14.34375 L 11.007812 -6.371094 Z M 15.464844 0 L 7.871094 -18.523438 L 0.253906 0 L 2.191406 0 L 4.050781 -4.714844 L 11.667969 -4.714844 L 13.527344 0 Z M 15.464844 0 "/></g></g></g><g fill="rgb(99.609375%, 99.609375%, 99.609375%)" fill-opacity="1"><g transform="translate(112.825318, 275.882145)"><g><path d="M 3.695312 -12.765625 L 13.425781 1.070312 L 13.425781 -17.324219 L 11.644531 -17.324219 L 11.644531 -4.585938 L 1.910156 -18.421875 L 1.910156 0 L 3.695312 0 Z M 3.695312 -12.765625 "/></g></g></g><g fill="rgb(99.609375%, 99.609375%, 99.609375%)" fill-opacity="1"><g transform="translate(143.448944, 275.882145)"><g/></g></g><g fill="rgb(99.609375%, 99.609375%, 99.609375%)" fill-opacity="1"><g transform="translate(165.614369, 275.882145)"><g><path d="M 12.203125 -15.667969 L 12.203125 -17.324219 L 1.910156 -17.324219 L 1.910156 0 L 3.695312 0 L 3.695312 -7.820312 L 11.949219 -7.820312 L 11.949219 -9.503906 L 3.695312 -9.503906 L 3.695312 -15.667969 Z M 12.203125 -15.667969 "/></g></g></g><g fill="rgb(99.609375%, 99.609375%, 99.609375%)" fill-opacity="1"><g transform="translate(193.613916, 275.882145)"><g><path d="M 3.695312 -8.558594 L 3.695312 -15.617188 L 7.71875 -15.617188 C 8.765625 -15.617188 9.605469 -15.285156 10.242188 -14.625 C 10.851562 -13.960938 11.183594 -13.144531 11.183594 -12.128906 C 11.183594 -11.109375 10.851562 -10.265625 10.191406 -9.578125 C 9.527344 -8.890625 8.714844 -8.558594 7.71875 -8.558594 Z M 12.96875 -12.101562 C 12.96875 -13.578125 12.40625 -14.851562 11.335938 -15.847656 C 10.292969 -16.816406 8.992188 -17.324219 7.464844 -17.324219 L 1.910156 -17.324219 L 1.910156 0 L 3.695312 0 L 3.695312 -6.851562 L 5.757812 -6.851562 L 10.851562 0 L 13.25 0 L 7.898438 -6.851562 C 9.25 -6.929688 10.394531 -7.414062 11.335938 -8.304688 C 12.40625 -9.300781 12.96875 -10.574219 12.96875 -12.101562 Z M 12.96875 -12.101562 "/></g></g></g><g fill="rgb(99.609375%, 99.609375%, 99.609375%)" fill-opacity="1"><g transform="translate(222.75991, 275.882145)"><g><path d="M 4.714844 -6.371094 L 7.871094 -14.34375 L 11.007812 -6.371094 Z M 15.464844 0 L 7.871094 -18.523438 L 0.253906 0 L 2.191406 0 L 4.050781 -4.714844 L 11.667969 -4.714844 L 13.527344 0 Z M 15.464844 0 "/></g></g></g><g fill="rgb(99.609375%, 99.609375%, 99.609375%)" fill-opacity="1"><g transform="translate(253.765683, 275.882145)"><g><path d="M 3.695312 -12.765625 L 13.425781 1.070312 L 13.425781 -17.324219 L 11.644531 -17.324219 L 11.644531 -4.585938 L 1.910156 -18.421875 L 1.910156 0 L 3.695312 0 Z M 3.695312 -12.765625 "/></g></g></g><g fill="rgb(99.609375%, 99.609375%, 99.609375%)" fill-opacity="1"><g transform="translate(284.389314, 275.882145)"><g><path d="M 17.808594 -5.300781 L 15.847656 -5.300781 C 15.234375 -4.179688 14.394531 -3.261719 13.324219 -2.597656 C 12.253906 -1.910156 11.058594 -1.578125 9.785156 -1.578125 C 7.871094 -1.578125 6.242188 -2.265625 4.890625 -3.695312 C 3.566406 -5.042969 2.929688 -6.699219 2.929688 -8.636719 C 2.929688 -10.574219 3.566406 -12.230469 4.890625 -13.605469 C 5.503906 -14.242188 6.242188 -14.75 7.082031 -15.132812 C 7.898438 -15.515625 8.714844 -15.71875 9.527344 -15.71875 C 10.320312 -15.71875 11.007812 -15.617188 11.617188 -15.4375 C 13.476562 -14.878906 14.878906 -13.757812 15.820312 -12.050781 L 17.785156 -12.050781 C 17.121094 -13.679688 16.078125 -15.007812 14.625 -16.023438 C 13.144531 -17.042969 11.542969 -17.554688 9.785156 -17.554688 C 7.363281 -17.554688 5.324219 -16.664062 3.644531 -14.90625 C 2.851562 -14.089844 2.242188 -13.121094 1.808594 -12.050781 C 1.351562 -10.980469 1.148438 -9.835938 1.148438 -8.636719 C 1.148438 -6.191406 1.960938 -4.128906 3.644531 -2.394531 C 5.324219 -0.613281 7.363281 0.253906 9.785156 0.253906 C 11.542969 0.253906 13.144531 -0.253906 14.648438 -1.273438 C 16.101562 -2.292969 17.144531 -3.617188 17.808594 -5.300781 Z M 17.808594 -5.300781 "/></g></g></g><g fill="rgb(99.609375%, 99.609375%, 99.609375%)" fill-opacity="1"><g transform="translate(318.248465, 275.882145)"><g><path d="M 3.695312 0 L 3.695312 -17.324219 L 1.910156 -17.324219 L 1.910156 0 Z M 3.695312 0 "/></g></g></g><g fill="rgb(99.609375%, 99.609375%, 99.609375%)" fill-opacity="1"><g transform="translate(339.140065, 275.882145)"><g><path d="M 6.699219 -8.152344 C 8.941406 -7.617188 10.472656 -7.03125 11.285156 -6.371094 C 11.847656 -5.910156 12.128906 -5.324219 12.128906 -4.613281 C 12.128906 -3.898438 11.972656 -3.3125 11.667969 -2.90625 C 10.90625 -1.835938 9.527344 -1.300781 7.59375 -1.300781 C 4.890625 -1.300781 3.363281 -2.214844 3.03125 -4.050781 L 0.941406 -4.050781 C 1.554688 -1.121094 3.769531 0.332031 7.59375 0.332031 C 9.300781 0.332031 10.726562 -0.0273438 11.871094 -0.789062 C 13.25 -1.679688 13.960938 -3.007812 13.960938 -4.738281 C 13.960938 -6.164062 13.402344 -7.261719 12.28125 -8.027344 C 11.492188 -8.585938 10.214844 -9.09375 8.457031 -9.554688 C 6.675781 -10.011719 5.527344 -10.394531 4.992188 -10.675781 C 3.820312 -11.261719 3.234375 -12.078125 3.261719 -13.144531 C 3.261719 -13.707031 3.363281 -14.191406 3.617188 -14.546875 C 4.28125 -15.542969 5.453125 -16.050781 7.132812 -16.050781 C 9.503906 -16.050781 10.851562 -15.285156 11.210938 -13.808594 L 13.144531 -13.808594 C 12.507812 -16.304688 10.496094 -17.578125 7.132812 -17.578125 C 5.605469 -17.578125 4.253906 -17.171875 3.132812 -16.355469 C 1.988281 -15.542969 1.402344 -14.34375 1.402344 -12.714844 C 1.402344 -10.496094 3.183594 -8.96875 6.699219 -8.152344 Z M 6.699219 -8.152344 "/></g></g></g><g fill="rgb(99.609375%, 99.609375%, 99.609375%)" fill-opacity="1"><g transform="translate(369.050364, 275.882145)"><g><path d="M 17.808594 -5.300781 L 15.847656 -5.300781 C 15.234375 -4.179688 14.394531 -3.261719 13.324219 -2.597656 C 12.253906 -1.910156 11.058594 -1.578125 9.785156 -1.578125 C 7.871094 -1.578125 6.242188 -2.265625 4.890625 -3.695312 C 3.566406 -5.042969 2.929688 -6.699219 2.929688 -8.636719 C 2.929688 -10.574219 3.566406 -12.230469 4.890625 -13.605469 C 5.503906 -14.242188 6.242188 -14.75 7.082031 -15.132812 C 7.898438 -15.515625 8.714844 -15.71875 9.527344 -15.71875 C 10.320312 -15.71875 11.007812 -15.617188 11.617188 -15.4375 C 13.476562 -14.878906 14.878906 -13.757812 15.820312 -12.050781 L 17.785156 -12.050781 C 17.121094 -13.679688 16.078125 -15.007812 14.625 -16.023438 C 13.144531 -17.042969 11.542969 -17.554688 9.785156 -17.554688 C 7.363281 -17.554688 5.324219 -16.664062 3.644531 -14.90625 C 2.851562 -14.089844 2.242188 -13.121094 1.808594 -12.050781 C 1.351562 -10.980469 1.148438 -9.835938 1.148438 -8.636719 C 1.148438 -6.191406 1.960938 -4.128906 3.644531 -2.394531 C 5.324219 -0.613281 7.363281 0.253906 9.785156 0.253906 C 11.542969 0.253906 13.144531 -0.253906 14.648438 -1.273438 C 16.101562 -2.292969 17.144531 -3.617188 17.808594 -5.300781 Z M 17.808594 -5.300781 "/></g></g></g><g fill="rgb(99.609375%, 99.609375%, 99.609375%)" fill-opacity="1"><g transform="translate(402.909515, 275.882145)"><g><path d="M 17.171875 -8.714844 C 17.171875 -6.726562 16.457031 -5.042969 15.082031 -3.667969 C 13.679688 -2.265625 12 -1.578125 10.039062 -1.578125 C 8.078125 -1.578125 6.394531 -2.265625 5.019531 -3.667969 C 3.617188 -5.042969 2.929688 -6.726562 2.929688 -8.714844 C 2.929688 -10.648438 3.617188 -12.332031 5.019531 -13.730469 C 6.394531 -15.109375 8.078125 -15.820312 10.039062 -15.820312 C 12 -15.820312 13.679688 -15.109375 15.082031 -13.730469 C 16.457031 -12.332031 17.171875 -10.648438 17.171875 -8.714844 Z M 18.957031 -8.714844 C 18.957031 -9.9375 18.699219 -11.082031 18.242188 -12.179688 C 17.785156 -13.25 17.144531 -14.191406 16.332031 -15.007812 C 15.515625 -15.796875 14.574219 -16.433594 13.503906 -16.890625 C 12.40625 -17.351562 11.261719 -17.605469 10.039062 -17.605469 C 8.816406 -17.605469 7.644531 -17.351562 6.574219 -16.890625 C 5.503906 -16.433594 4.558594 -15.796875 3.746094 -15.007812 C 2.929688 -14.191406 2.292969 -13.25 1.835938 -12.179688 C 1.375 -11.082031 1.148438 -9.9375 1.148438 -8.714844 C 1.148438 -7.492188 1.375 -6.320312 1.835938 -5.25 C 2.292969 -4.152344 2.929688 -3.210938 3.746094 -2.394531 C 4.558594 -1.578125 5.503906 -0.941406 6.574219 -0.484375 C 7.644531 -0.0273438 8.816406 0.203125 10.039062 0.203125 C 11.261719 0.203125 12.40625 -0.0273438 13.503906 -0.484375 C 14.574219 -0.941406 15.515625 -1.578125 16.332031 -2.394531 C 17.144531 -3.210938 17.785156 -4.152344 18.242188 -5.25 C 18.699219 -6.320312 18.957031 -7.492188 18.957031 -8.714844 Z M 18.957031 -8.714844 "/></g></g></g><g fill="rgb(99.609375%, 99.609375%, 99.609375%)" fill-opacity="1"><g transform="translate(438.297276, 275.882145)"><g/></g></g><g fill="rgb(99.609375%, 99.609375%, 99.609375%)" fill-opacity="1"><g transform="translate(460.462695, 275.882145)"><g><path d="M 13.222656 -4.816406 C 13.222656 -6.039062 12.917969 -7.082031 12.332031 -7.898438 C 11.71875 -8.714844 10.90625 -9.273438 9.910156 -9.554688 C 10.496094 -9.808594 11.007812 -10.265625 11.386719 -10.957031 C 11.566406 -11.261719 11.695312 -11.566406 11.796875 -11.898438 C 11.898438 -12.230469 11.949219 -12.6875 11.949219 -13.273438 C 11.949219 -13.835938 11.796875 -14.421875 11.542969 -14.980469 C 10.777344 -16.535156 9.121094 -17.324219 6.597656 -17.324219 L 1.910156 -17.324219 L 1.910156 0 L 7.210938 0 C 8.96875 0 10.371094 -0.382812 11.4375 -1.199219 C 11.972656 -1.605469 12.40625 -2.140625 12.738281 -2.800781 C 13.042969 -3.441406 13.222656 -4.101562 13.222656 -4.816406 Z M 10.164062 -12.992188 C 10.164062 -12.050781 9.886719 -11.363281 9.324219 -10.90625 C 8.765625 -10.445312 8.027344 -10.214844 7.109375 -10.214844 L 3.695312 -10.214844 L 3.695312 -15.617188 L 6.597656 -15.617188 C 8.96875 -15.617188 10.164062 -14.726562 10.164062 -12.992188 Z M 11.4375 -5.171875 C 11.4375 -4.128906 11.082031 -3.285156 10.371094 -2.648438 C 9.679688 -2.011719 8.789062 -1.707031 7.71875 -1.707031 L 3.695312 -1.707031 L 3.695312 -8.433594 L 8 -8.433594 C 8.890625 -8.433594 9.679688 -8.128906 10.371094 -7.515625 C 10.675781 -7.234375 10.929688 -6.90625 11.132812 -6.523438 C 11.335938 -6.113281 11.4375 -5.679688 11.4375 -5.171875 Z M 11.4375 -5.171875 "/></g></g></g><g fill="rgb(99.609375%, 99.609375%, 99.609375%)" fill-opacity="1"><g transform="translate(489.481292, 275.882145)"><g><path d="M 4.714844 -6.371094 L 7.871094 -14.34375 L 11.007812 -6.371094 Z M 15.464844 0 L 7.871094 -18.523438 L 0.253906 0 L 2.191406 0 L 4.050781 -4.714844 L 11.667969 -4.714844 L 13.527344 0 Z M 15.464844 0 "/></g></g></g><g fill="rgb(99.609375%, 99.609375%, 99.609375%)" fill-opacity="1"><g transform="translate(520.487088, 275.882145)"><g><path d="M 8.613281 -8.152344 L 15.160156 -17.324219 L 12.890625 -17.324219 L 7.71875 -9.910156 L 2.546875 -17.324219 L 0.253906 -17.324219 L 6.828125 -8.128906 L 6.828125 0 L 8.613281 0 Z M 8.613281 -8.152344 "/></g></g></g><g fill="rgb(99.609375%, 99.609375%, 99.609375%)" fill-opacity="1"><g transform="translate(551.187144, 275.882145)"><g/></g></g><g fill="rgb(99.609375%, 99.609375%, 99.609375%)" fill-opacity="1"><g transform="translate(573.352562, 275.882145)"><g><path d="M 4.714844 -6.371094 L 7.871094 -14.34375 L 11.007812 -6.371094 Z M 15.464844 0 L 7.871094 -18.523438 L 0.253906 0 L 2.191406 0 L 4.050781 -4.714844 L 11.667969 -4.714844 L 13.527344 0 Z M 15.464844 0 "/></g></g></g><g fill="rgb(99.609375%, 99.609375%, 99.609375%)" fill-opacity="1"><g transform="translate(604.358358, 275.882145)"><g><path d="M 3.695312 -8.558594 L 3.695312 -15.617188 L 7.71875 -15.617188 C 8.765625 -15.617188 9.605469 -15.285156 10.242188 -14.625 C 10.851562 -13.960938 11.183594 -13.144531 11.183594 -12.128906 C 11.183594 -11.109375 10.851562 -10.265625 10.191406 -9.578125 C 9.527344 -8.890625 8.714844 -8.558594 7.71875 -8.558594 Z M 12.96875 -12.101562 C 12.96875 -13.578125 12.40625 -14.851562 11.335938 -15.847656 C 10.292969 -16.816406 8.992188 -17.324219 7.464844 -17.324219 L 1.910156 -17.324219 L 1.910156 0 L 3.695312 0 L 3.695312 -6.851562 L 5.757812 -6.851562 L 10.851562 0 L 13.25 0 L 7.898438 -6.851562 C 9.25 -6.929688 10.394531 -7.414062 11.335938 -8.304688 C 12.40625 -9.300781 12.96875 -10.574219 12.96875 -12.101562 Z M 12.96875 -12.101562 "/></g></g></g><g fill="rgb(99.609375%, 99.609375%, 99.609375%)" fill-opacity="1"><g transform="translate(633.504351, 275.882145)"><g><path d="M 12.203125 0 L 12.203125 -1.65625 L 3.695312 -1.65625 L 3.695312 -7.820312 L 11.949219 -7.820312 L 11.949219 -9.503906 L 3.695312 -9.503906 L 3.695312 -15.667969 L 12.203125 -15.667969 L 12.203125 -17.324219 L 1.910156 -17.324219 L 1.910156 0 Z M 12.203125 0 "/></g></g></g><g fill="rgb(99.609375%, 99.609375%, 99.609375%)" fill-opacity="1"><g transform="translate(662.905091, 275.882145)"><g><path d="M 4.714844 -6.371094 L 7.871094 -14.34375 L 11.007812 -6.371094 Z M 15.464844 0 L 7.871094 -18.523438 L 0.253906 0 L 2.191406 0 L 4.050781 -4.714844 L 11.667969 -4.714844 L 13.527344 0 Z M 15.464844 0 "/></g></g></g></svg>