<svg xmlns="http://www.w3.org/2000/svg" xmlns:xlink="http://www.w3.org/1999/xlink" width="1920" zoomAndPan="magnify" viewBox="0 0 1440 809.999993" height="1080" preserveAspectRatio="xMidYMid meet" version="1.0"><defs><g/></defs><g fill="#09eeef" fill-opacity="0.4"><g transform="translate(17.612975, 388.060856)"><g><path d="M 328.613281 -173.796875 L 189.800781 -173.796875 L 189.800781 -116.859375 L 263.488281 -116.859375 C 251.949219 -80.015625 219.945312 -53.21875 178.261719 -53.21875 C 125.789062 -53.21875 88.574219 -96.015625 88.574219 -148.492188 C 88.574219 -200.964844 125.789062 -243.761719 178.261719 -243.761719 C 196.871094 -243.761719 213.617188 -238.554688 227.015625 -229.25 L 268.699219 -270.929688 C 243.390625 -289.539062 212.128906 -300.703125 178.261719 -300.703125 C 94.15625 -300.703125 26.050781 -232.597656 26.050781 -148.492188 C 26.050781 -64.382812 94.15625 3.722656 178.261719 3.722656 C 262.371094 3.722656 330.476562 -64.382812 330.476562 -148.492188 C 330.476562 -157.050781 329.730469 -165.609375 328.613281 -173.796875 Z M 328.613281 -173.796875 "/></g></g></g><g fill="#09eeef" fill-opacity="0.4"><g transform="translate(374.139197, 388.060856)"><g><path d="M 198.730469 -242.648438 L 198.730469 -298.097656 L 26.050781 -298.097656 L 26.050781 0 L 198.730469 0 L 198.730469 -55.453125 L 81.875 -55.453125 L 81.875 -121.695312 L 151.46875 -121.695312 L 151.46875 -177.148438 L 81.875 -177.148438 L 81.875 -242.648438 Z M 198.730469 -242.648438 "/></g></g></g><g fill="#09eeef" fill-opacity="0.4"><g transform="translate(598.921911, 388.060856)"><g><path d="M 249.71875 -297.726562 L 26.050781 -297.726562 L 26.050781 -242.273438 L 110.160156 -242.273438 L 110.160156 0 L 165.609375 0 L 165.609375 -242.273438 L 249.71875 -242.273438 Z M 249.71875 -297.726562 "/></g></g></g><g fill="#09eeef" fill-opacity="0.4"><g transform="translate(874.690087, 388.060856)"><g/></g></g><g fill="#09eeef" fill-opacity="0.4"><g transform="translate(986.337176, 388.060856)"><g><path d="M 26.050781 -297.726562 L 81.875 -297.726562 L 81.875 -1.117188 L 26.050781 -1.117188 Z M 26.050781 -297.726562 "/></g></g></g><g fill="#09eeef" fill-opacity="0.4"><g transform="translate(1094.262647, 388.060856)"><g><path d="M 202.824219 -297.726562 L 202.824219 -96.761719 L 87.085938 -297.726562 L 26.050781 -297.726562 L 26.050781 0 L 81.875 0 L 81.875 -186.449219 L 189.054688 0 L 258.648438 0 L 258.648438 -297.726562 Z M 202.824219 -297.726562 "/></g></g></g><g fill="#09eeef" fill-opacity="1"><g transform="translate(39.328129, 379.72519)"><g><path d="M 328.613281 -173.796875 L 189.800781 -173.796875 L 189.800781 -116.859375 L 263.488281 -116.859375 C 251.949219 -80.015625 219.945312 -53.21875 178.261719 -53.21875 C 125.789062 -53.21875 88.574219 -96.015625 88.574219 -148.492188 C 88.574219 -200.964844 125.789062 -243.761719 178.261719 -243.761719 C 196.871094 -243.761719 213.617188 -238.554688 227.015625 -229.25 L 268.699219 -270.929688 C 243.390625 -289.539062 212.128906 -300.703125 178.261719 -300.703125 C 94.15625 -300.703125 26.050781 -232.597656 26.050781 -148.492188 C 26.050781 -64.382812 94.15625 3.722656 178.261719 3.722656 C 262.371094 3.722656 330.476562 -64.382812 330.476562 -148.492188 C 330.476562 -157.050781 329.730469 -165.609375 328.613281 -173.796875 Z M 328.613281 -173.796875 "/></g></g></g><g fill="#09eeef" fill-opacity="1"><g transform="translate(395.854351, 379.72519)"><g><path d="M 198.730469 -242.648438 L 198.730469 -298.097656 L 26.050781 -298.097656 L 26.050781 0 L 198.730469 0 L 198.730469 -55.453125 L 81.875 -55.453125 L 81.875 -121.695312 L 151.46875 -121.695312 L 151.46875 -177.148438 L 81.875 -177.148438 L 81.875 -242.648438 Z M 198.730469 -242.648438 "/></g></g></g><g fill="#09eeef" fill-opacity="1"><g transform="translate(620.637065, 379.72519)"><g><path d="M 249.71875 -297.726562 L 26.050781 -297.726562 L 26.050781 -242.273438 L 110.160156 -242.273438 L 110.160156 0 L 165.609375 0 L 165.609375 -242.273438 L 249.71875 -242.273438 Z M 249.71875 -297.726562 "/></g></g></g><g fill="#09eeef" fill-opacity="1"><g transform="translate(896.405241, 379.72519)"><g/></g></g><g fill="#09eeef" fill-opacity="1"><g transform="translate(1008.05233, 379.72519)"><g><path d="M 26.050781 -297.726562 L 81.875 -297.726562 L 81.875 -1.117188 L 26.050781 -1.117188 Z M 26.050781 -297.726562 "/></g></g></g><g fill="#09eeef" fill-opacity="1"><g transform="translate(1115.977801, 379.72519)"><g><path d="M 202.824219 -297.726562 L 202.824219 -96.761719 L 87.085938 -297.726562 L 26.050781 -297.726562 L 26.050781 0 L 81.875 0 L 81.875 -186.449219 L 189.054688 0 L 258.648438 0 L 258.648438 -297.726562 Z M 202.824219 -297.726562 "/></g></g></g><g fill="#ffffff" fill-opacity="0.4"><g transform="translate(-17.620058, 738.597775)"><g><path d="M 241.570312 -288.011719 L 25.199219 -288.011719 L 25.199219 -234.371094 L 106.5625 -234.371094 L 106.5625 0 L 160.207031 0 L 160.207031 -234.371094 L 241.570312 -234.371094 Z M 241.570312 -288.011719 "/></g></g></g><g fill="#ffffff" fill-opacity="0.4"><g transform="translate(249.150586, 738.597775)"><g><path d="M 159.847656 -291.613281 C 78.484375 -291.613281 12.601562 -225.730469 12.601562 -144.367188 C 12.601562 -63.003906 78.484375 2.878906 159.847656 2.878906 C 241.210938 2.878906 307.09375 -63.003906 307.09375 -144.367188 C 307.09375 -225.730469 241.210938 -291.613281 159.847656 -291.613281 Z M 159.847656 -236.53125 C 210.96875 -236.53125 246.96875 -195.128906 246.96875 -144.367188 C 246.96875 -93.605469 210.96875 -52.203125 159.847656 -52.203125 C 109.085938 -52.203125 73.082031 -93.605469 73.082031 -144.367188 C 73.082031 -195.128906 109.085938 -236.53125 159.847656 -236.53125 Z M 159.847656 -236.53125 "/></g></g></g><g fill="#ffffff" fill-opacity="0.4"><g transform="translate(568.84338, 738.597775)"><g><path d="M 190.808594 -288.011719 L 190.808594 -99.722656 C 190.808594 -70.5625 167.40625 -47.160156 138.605469 -47.160156 L 131.40625 -47.160156 C 102.605469 -47.160156 79.203125 -70.5625 79.203125 -99.722656 L 79.203125 -288.011719 L 25.199219 -288.011719 L 25.199219 -99.722656 C 25.199219 -41.402344 73.082031 6.480469 131.40625 6.480469 L 138.605469 6.480469 C 196.929688 6.480469 244.449219 -41.402344 244.449219 -99.722656 L 244.449219 -288.011719 Z M 190.808594 -288.011719 "/></g></g></g><g fill="#ffffff" fill-opacity="0.4"><g transform="translate(838.494091, 738.597775)"><g><path d="M 236.167969 -80.285156 C 221.050781 -62.644531 198.726562 -51.84375 172.445312 -51.84375 C 121.683594 -51.84375 85.683594 -93.242188 85.683594 -144.007812 C 85.683594 -194.769531 121.683594 -236.167969 172.445312 -236.167969 C 198.726562 -236.167969 221.050781 -225.371094 236.167969 -207.730469 L 276.851562 -248.050781 C 250.210938 -274.691406 213.128906 -291.253906 172.445312 -291.253906 C 91.082031 -291.253906 25.199219 -225.371094 25.199219 -144.007812 C 25.199219 -62.644531 91.082031 3.238281 172.445312 3.238281 C 213.128906 3.238281 250.210938 -13.320312 276.851562 -39.960938 Z M 236.167969 -80.285156 "/></g></g></g><g fill="#ffffff" fill-opacity="0.4"><g transform="translate(1140.546136, 738.597775)"><g><path d="M 196.207031 -285.851562 L 196.207031 -154.445312 L 79.203125 -154.445312 L 79.203125 -285.851562 L 25.199219 -285.851562 L 25.199219 2.519531 L 79.203125 2.519531 L 79.203125 -100.804688 L 196.207031 -100.804688 L 196.207031 2.519531 L 249.851562 2.519531 L 249.851562 -285.851562 Z M 196.207031 -285.851562 "/></g></g></g><g fill="#333333" fill-opacity="1"><g transform="translate(3.386725, 730.534015)"><g><path d="M 241.570312 -288.011719 L 25.199219 -288.011719 L 25.199219 -234.371094 L 106.5625 -234.371094 L 106.5625 0 L 160.207031 0 L 160.207031 -234.371094 L 241.570312 -234.371094 Z M 241.570312 -288.011719 "/></g></g></g><g fill="#333333" fill-opacity="1"><g transform="translate(270.157369, 730.534015)"><g><path d="M 159.847656 -291.613281 C 78.484375 -291.613281 12.601562 -225.730469 12.601562 -144.367188 C 12.601562 -63.003906 78.484375 2.878906 159.847656 2.878906 C 241.210938 2.878906 307.09375 -63.003906 307.09375 -144.367188 C 307.09375 -225.730469 241.210938 -291.613281 159.847656 -291.613281 Z M 159.847656 -236.53125 C 210.96875 -236.53125 246.96875 -195.128906 246.96875 -144.367188 C 246.96875 -93.605469 210.96875 -52.203125 159.847656 -52.203125 C 109.085938 -52.203125 73.082031 -93.605469 73.082031 -144.367188 C 73.082031 -195.128906 109.085938 -236.53125 159.847656 -236.53125 Z M 159.847656 -236.53125 "/></g></g></g><g fill="#333333" fill-opacity="1"><g transform="translate(589.850163, 730.534015)"><g><path d="M 190.808594 -288.011719 L 190.808594 -99.722656 C 190.808594 -70.5625 167.40625 -47.160156 138.605469 -47.160156 L 131.40625 -47.160156 C 102.605469 -47.160156 79.203125 -70.5625 79.203125 -99.722656 L 79.203125 -288.011719 L 25.199219 -288.011719 L 25.199219 -99.722656 C 25.199219 -41.402344 73.082031 6.480469 131.40625 6.480469 L 138.605469 6.480469 C 196.929688 6.480469 244.449219 -41.402344 244.449219 -99.722656 L 244.449219 -288.011719 Z M 190.808594 -288.011719 "/></g></g></g><g fill="#333333" fill-opacity="1"><g transform="translate(859.500874, 730.534015)"><g><path d="M 236.167969 -80.285156 C 221.050781 -62.644531 198.726562 -51.84375 172.445312 -51.84375 C 121.683594 -51.84375 85.683594 -93.242188 85.683594 -144.007812 C 85.683594 -194.769531 121.683594 -236.167969 172.445312 -236.167969 C 198.726562 -236.167969 221.050781 -225.371094 236.167969 -207.730469 L 276.851562 -248.050781 C 250.210938 -274.691406 213.128906 -291.253906 172.445312 -291.253906 C 91.082031 -291.253906 25.199219 -225.371094 25.199219 -144.007812 C 25.199219 -62.644531 91.082031 3.238281 172.445312 3.238281 C 213.128906 3.238281 250.210938 -13.320312 276.851562 -39.960938 Z M 236.167969 -80.285156 "/></g></g></g><g fill="#333333" fill-opacity="1"><g transform="translate(1161.552919, 730.534015)"><g><path d="M 196.207031 -285.851562 L 196.207031 -154.445312 L 79.203125 -154.445312 L 79.203125 -285.851562 L 25.199219 -285.851562 L 25.199219 2.519531 L 79.203125 2.519531 L 79.203125 -100.804688 L 196.207031 -100.804688 L 196.207031 2.519531 L 249.851562 2.519531 L 249.851562 -285.851562 Z M 196.207031 -285.851562 "/></g></g></g></svg>